<svg id="icon_user" xmlns="http://www.w3.org/2000/svg" width="52" height="52" viewBox="0 0 52 52">
  <g id="Elipse_5" data-name="Elipse 5" fill="rgba(255,255,255,0.33)" stroke="#fff" stroke-width="1">
    <circle cx="26" cy="26" r="26" stroke="none"/>
    <circle cx="26" cy="26" r="25.5" fill="none"/>
  </g>
  <path id="user-regular" d="M17.684,17.143c-1.618,0-2.4.9-5.053.9s-3.429-.9-5.053-.9A7.581,7.581,0,0,0,0,24.722v1.444a2.707,2.707,0,0,0,2.707,2.707h19.85a2.707,2.707,0,0,0,2.707-2.707V24.722A7.581,7.581,0,0,0,17.684,17.143Zm4.872,9.023H2.707V24.722A4.881,4.881,0,0,1,7.579,19.85c.823,0,2.16.9,5.053.9,2.915,0,4.224-.9,5.053-.9a4.881,4.881,0,0,1,4.872,4.872Zm-9.925-9.925a8.12,8.12,0,1,0-8.12-8.12A8.122,8.122,0,0,0,12.632,16.241Zm0-13.534A5.414,5.414,0,1,1,7.218,8.12,5.422,5.422,0,0,1,12.632,2.707Z" transform="translate(13.368 9)" fill="#fff"/>
</svg>
