<svg id="icon_mail" xmlns="http://www.w3.org/2000/svg" xmlns:xlink="http://www.w3.org/1999/xlink" width="21.997" height="16.498" viewBox="0 0 21.997 16.498">
  <defs>
    <linearGradient id="linear-gradient" x1="0.5" x2="0.5" y2="1" gradientUnits="objectBoundingBox">
      <stop offset="0" stop-color="#ffd1d1"/>
      <stop offset="1" stop-color="#f62b2b"/>
    </linearGradient>
  </defs>
  <path id="envelope-solid" d="M21.58,69.448a.259.259,0,0,1,.417.2v8.786A2.063,2.063,0,0,1,19.935,80.5H2.062A2.063,2.063,0,0,1,0,78.435V69.654a.257.257,0,0,1,.417-.2c.962.748,2.238,1.7,6.621,4.881.907.662,2.436,2.054,3.961,2.045,1.534.013,3.093-1.409,3.965-2.045C19.346,71.149,20.618,70.2,21.58,69.448ZM11,75c1,.017,2.432-1.255,3.153-1.779,5.7-4.137,6.135-4.5,7.45-5.529a1.028,1.028,0,0,0,.4-.812v-.816A2.063,2.063,0,0,0,19.935,64H2.062A2.063,2.063,0,0,0,0,66.062v.816a1.034,1.034,0,0,0,.4.812c1.315,1.027,1.749,1.392,7.45,5.529C8.567,73.744,10,75.016,11,75Z" transform="translate(0 -64)" fill="url(#linear-gradient)"/>
</svg>
